<svg width="207" height="127" viewBox="0 0 207 127" fill="none" xmlns="http://www.w3.org/2000/svg">
<g id="Frame 39936">
<rect x="1" y="1.08008" width="205" height="125" rx="9.5" stroke="#0A2730"/>
<path id="Vector" d="M40.9943 104.833C39.8965 104.196 39.0292 103.329 38.3787 102.218C37.7281 101.106 37.4164 99.873 37.4164 98.5313C37.4164 97.1896 37.7417 95.9563 38.3787 94.845C39.0156 93.7337 39.8965 92.8663 40.9943 92.2294C42.0921 91.5924 43.2983 91.2807 44.5993 91.2807C45.6158 91.2807 46.578 91.4569 47.4725 91.8228C48.3669 92.1887 49.1123 92.6901 49.6951 93.3542L48.516 94.5333C48.0823 93.9912 47.5131 93.5711 46.8355 93.2865C46.1443 93.0019 45.4125 92.8528 44.6264 92.8528C43.6506 92.8528 42.7291 93.0832 41.8888 93.5575C41.0485 94.0319 40.3709 94.6959 39.8559 95.5498C39.3409 96.4036 39.0969 97.4065 39.0969 98.5313C39.0969 99.6562 39.3544 100.646 39.8559 101.513C40.3573 102.38 41.0485 103.031 41.9023 103.505C42.7562 103.979 43.6642 104.21 44.64 104.21C45.6158 104.21 46.3476 104.061 46.971 103.776C47.5944 103.492 48.1365 103.099 48.5838 102.624C48.9226 102.258 49.1937 101.825 49.3969 101.31C49.6002 100.795 49.7358 100.239 49.79 99.6155H44.6535V98.0841H51.3214C51.3892 98.45 51.4163 98.7753 51.4163 99.087C51.4163 99.9408 51.2808 100.768 51.0097 101.581C50.7387 102.394 50.305 103.099 49.7087 103.708C48.4347 105.091 46.7271 105.782 44.6129 105.782C43.3118 105.782 42.1056 105.47 41.0079 104.833H40.9943ZM44.5993 105.958C43.2712 105.958 42.0243 105.633 40.913 104.982C39.7881 104.332 38.8937 103.437 38.2296 102.299C37.5655 101.174 37.2402 99.9001 37.2402 98.5313C37.2402 97.1625 37.579 95.9021 38.2296 94.7637C38.8801 93.6388 39.7881 92.7308 40.913 92.0803C42.0379 91.4297 43.2712 91.1045 44.5993 91.1045C45.6429 91.1045 46.6322 91.2942 47.5402 91.6601C48.4618 92.0261 49.2208 92.5546 49.8171 93.2323L49.9255 93.3542L48.5025 94.7773L48.3805 94.6282C47.9604 94.1132 47.4183 93.7066 46.7542 93.422C46.0901 93.1374 45.3718 93.0019 44.6129 93.0019C43.6642 93.0019 42.7697 93.2322 41.9565 93.693C41.1434 94.1538 40.4793 94.8044 39.9779 95.6311C39.49 96.4578 39.2325 97.4336 39.2325 98.5178C39.2325 99.602 39.4764 100.578 39.9779 101.404C40.4658 102.231 41.1434 102.882 41.9565 103.343C42.7833 103.803 43.6777 104.034 44.6129 104.034C45.548 104.034 46.2798 103.898 46.8762 103.614C47.486 103.329 48.001 102.963 48.4483 102.502C48.7735 102.163 49.031 101.73 49.2343 101.242C49.4105 100.795 49.5325 100.307 49.5867 99.7782H44.4638V97.9079H51.4434L51.4705 98.0434C51.5383 98.4094 51.5654 98.7617 51.5654 99.087C51.5654 99.9544 51.4298 100.808 51.1452 101.635C50.8606 102.462 50.4134 103.193 49.8035 103.817C48.5025 105.226 46.7406 105.945 44.5858 105.945L44.5993 105.958ZM44.5993 91.4569C43.3254 91.4569 42.1463 91.7686 41.0756 92.3784C40.005 93.0019 39.1512 93.8557 38.5142 94.9263C37.8908 96.0105 37.5655 97.2167 37.5655 98.5178C37.5655 99.8188 37.8772 101.039 38.5142 102.109C39.1376 103.193 40.005 104.047 41.0756 104.657C42.1463 105.267 43.3254 105.579 44.5993 105.579C46.6593 105.579 48.3263 104.901 49.5731 103.559C50.1559 102.963 50.576 102.272 50.8335 101.499C51.1046 100.713 51.2266 99.9001 51.2266 99.0599C51.2266 98.8024 51.1994 98.5178 51.1588 98.2196H44.8026V99.4123H49.9526V99.602C49.8848 100.239 49.7493 100.822 49.5325 101.35C49.3156 101.879 49.031 102.34 48.6922 102.706C48.2314 103.193 47.6622 103.6 47.0252 103.898C46.3747 104.196 45.5615 104.345 44.6129 104.345C43.6642 104.345 42.6748 104.101 41.7939 103.614C40.913 103.126 40.2083 102.434 39.6797 101.554C39.1512 100.673 38.8937 99.6426 38.8937 98.4907C38.8937 97.3387 39.1647 96.3087 39.6797 95.4278C40.2083 94.5469 40.913 93.8557 41.7804 93.3678C42.6477 92.8799 43.5964 92.6359 44.5993 92.6359C45.3989 92.6359 46.1714 92.785 46.8762 93.0832C47.5267 93.3542 48.0688 93.7473 48.5025 94.2351L49.4376 93.3C48.8955 92.7172 48.2043 92.2565 47.3912 91.9312C46.5238 91.5788 45.5751 91.4026 44.5722 91.4026L44.5993 91.4569ZM55.4821 105.091C54.7096 104.63 54.0997 103.993 53.666 103.193C53.2323 102.394 53.0155 101.513 53.0155 100.537C53.0155 99.5613 53.2323 98.6804 53.666 97.8808C54.0997 97.0812 54.7096 96.4442 55.4821 95.9834C56.2546 95.5226 57.1355 95.2923 58.0977 95.2923C59.06 95.2923 59.9409 95.5226 60.7134 95.9834C61.4859 96.4442 62.0958 97.0812 62.5294 97.8808C62.9631 98.6804 63.18 99.5613 63.18 100.537C63.18 101.513 62.9631 102.394 62.5294 103.193C62.0958 103.993 61.4859 104.63 60.7134 105.091C59.9409 105.552 59.06 105.782 58.0977 105.782C57.1355 105.782 56.2546 105.552 55.4821 105.091ZM59.7918 103.844C60.3204 103.546 60.7405 103.099 61.0522 102.529C61.3639 101.96 61.5265 101.296 61.5265 100.537C61.5265 99.7782 61.3639 99.1141 61.0522 98.5449C60.7405 97.9757 60.3204 97.542 59.7918 97.2438C59.2633 96.9457 58.7076 96.783 58.0977 96.783C57.4879 96.783 56.9187 96.9321 56.3901 97.2438C55.8616 97.542 55.4414 97.9892 55.1162 98.5449C54.8044 99.1141 54.6418 99.7782 54.6418 100.537C54.6418 101.296 54.8044 101.96 55.1162 102.529C55.4279 103.099 55.8616 103.532 56.3901 103.844C56.9187 104.142 57.4879 104.305 58.0977 104.305C58.7076 104.305 59.2768 104.156 59.7918 103.844ZM58.0977 105.958C57.0948 105.958 56.1868 105.714 55.3872 105.24C54.5876 104.766 53.9642 104.101 53.5169 103.275C53.0697 102.448 52.8529 101.526 52.8529 100.537C52.8529 99.5478 53.0833 98.6262 53.5169 97.7995C53.9506 96.9728 54.5876 96.3223 55.3872 95.8344C56.1868 95.36 57.0948 95.1161 58.0977 95.1161C59.1006 95.1161 60.0087 95.36 60.7947 95.8344C61.5943 96.3087 62.2177 96.9728 62.665 97.7995C63.1122 98.6262 63.3291 99.5478 63.3291 100.537C63.3291 101.526 63.0987 102.448 62.665 103.275C62.2177 104.101 61.5943 104.766 60.7947 105.24C59.9951 105.714 59.0871 105.958 58.0977 105.958ZM58.0977 95.4549C57.1626 95.4549 56.3088 95.6853 55.5634 96.1325C54.818 96.5798 54.2352 97.2032 53.8151 97.9621C53.395 98.7346 53.1917 99.602 53.1917 100.537C53.1917 101.472 53.4085 102.34 53.8151 103.112C54.2352 103.885 54.818 104.494 55.5634 104.942C56.3088 105.389 57.1626 105.619 58.0977 105.619C59.0329 105.619 59.8867 105.389 60.6321 104.942C61.3775 104.494 61.9602 103.885 62.3804 103.112C62.8005 102.34 63.0038 101.472 63.0038 100.537C63.0038 99.602 62.7869 98.7346 62.3804 97.9621C61.9602 97.1896 61.3775 96.5798 60.6321 96.1325C59.8867 95.6853 59.0329 95.4549 58.0977 95.4549ZM58.0977 104.467C57.4608 104.467 56.8644 104.305 56.3088 103.993C55.7531 103.668 55.3059 103.207 54.9806 102.624C54.6554 102.028 54.4792 101.337 54.4792 100.551C54.4792 99.7646 54.6418 99.0599 54.9806 98.4771C55.3059 97.8808 55.7667 97.42 56.3088 97.1083C57.4066 96.4713 58.7889 96.4713 59.8731 97.1083C60.4152 97.42 60.8625 97.8808 61.2013 98.4771C61.5266 99.0734 61.7027 99.7646 61.7027 100.551C61.7027 101.337 61.5401 102.041 61.2013 102.624C60.876 103.221 60.4288 103.681 59.8731 103.993C59.331 104.305 58.7212 104.467 58.0977 104.467ZM58.0977 96.9457C57.515 96.9457 56.9729 97.0948 56.4714 97.3794C55.97 97.664 55.5634 98.0841 55.2652 98.6262C54.9671 99.1683 54.818 99.8053 54.818 100.537C54.818 101.269 54.9671 101.906 55.2652 102.448C55.5634 102.99 55.97 103.41 56.4714 103.695C57.4743 104.264 58.7076 104.264 59.6969 103.695C60.1848 103.41 60.5914 102.99 60.8896 102.448C61.1877 101.906 61.3368 101.269 61.3368 100.537C61.3368 99.8053 61.1877 99.1683 60.8896 98.6262C60.5914 98.0841 60.1848 97.664 59.6969 97.3794C59.2091 97.0948 58.6669 96.9457 58.0842 96.9457H58.0977ZM67.0154 105.091C66.2429 104.63 65.633 103.993 65.1993 103.193C64.7656 102.394 64.5488 101.513 64.5488 100.537C64.5488 99.5613 64.7656 98.6804 65.1993 97.8808C65.633 97.0812 66.2429 96.4442 67.0154 95.9834C67.7879 95.5226 68.6688 95.2923 69.631 95.2923C70.5933 95.2923 71.4742 95.5226 72.2467 95.9834C73.0192 96.4442 73.6291 97.0812 74.0627 97.8808C74.4964 98.6804 74.7133 99.5613 74.7133 100.537C74.7133 101.513 74.4964 102.394 74.0627 103.193C73.6291 103.993 73.0192 104.63 72.2467 105.091C71.4742 105.552 70.5933 105.782 69.631 105.782C68.6688 105.782 67.7879 105.552 67.0154 105.091ZM71.3251 103.844C71.8537 103.546 72.2738 103.099 72.5855 102.529C72.8972 101.96 73.0598 101.296 73.0598 100.537C73.0598 99.7782 72.8972 99.1141 72.5855 98.5449C72.2738 97.9757 71.8537 97.542 71.3251 97.2438C70.7966 96.9457 70.2409 96.783 69.631 96.783C69.0212 96.783 68.4519 96.9321 67.9234 97.2438C67.3948 97.542 66.9747 97.9892 66.6494 98.5449C66.3377 99.1141 66.1751 99.7782 66.1751 100.537C66.1751 101.296 66.3377 101.96 66.6494 102.529C66.9612 103.099 67.3948 103.532 67.9234 103.844C68.4519 104.142 69.0212 104.305 69.631 104.305C70.2409 104.305 70.8101 104.156 71.3251 103.844ZM69.631 105.958C68.6281 105.958 67.7201 105.714 66.9205 105.24C66.1209 104.766 65.4975 104.101 65.0502 103.275C64.603 102.448 64.3862 101.526 64.3862 100.537C64.3862 99.5478 64.6166 98.6262 65.0502 97.7995C65.4839 96.9728 66.1209 96.3223 66.9205 95.8344C67.7201 95.36 68.6281 95.1161 69.631 95.1161C70.6339 95.1161 71.5419 95.36 72.328 95.8344C73.1276 96.3087 73.751 96.9728 74.1983 97.7995C74.6455 98.6262 74.8623 99.5478 74.8623 100.537C74.8623 101.526 74.6319 102.448 74.1983 103.275C73.751 104.101 73.1276 104.766 72.328 105.24C71.5284 105.714 70.6204 105.958 69.631 105.958ZM69.631 95.4549C68.6959 95.4549 67.8421 95.6853 67.0967 96.1325C66.3513 96.5798 65.7685 97.2032 65.3484 97.9621C64.9283 98.7346 64.725 99.602 64.725 100.537C64.725 101.472 64.9418 102.34 65.3484 103.112C65.7685 103.885 66.3513 104.494 67.0967 104.942C67.8421 105.389 68.6959 105.619 69.631 105.619C70.5662 105.619 71.42 105.389 72.1654 104.942C72.9108 104.494 73.4935 103.885 73.9137 103.112C74.3338 102.34 74.5371 101.472 74.5371 100.537C74.5371 99.602 74.3202 98.7346 73.9137 97.9621C73.4935 97.1896 72.9108 96.5798 72.1654 96.1325C71.42 95.6853 70.5662 95.4549 69.631 95.4549ZM69.631 104.467C68.994 104.467 68.3977 104.305 67.8421 103.993C67.2864 103.668 66.8392 103.207 66.5139 102.624C66.1887 102.028 66.0125 101.337 66.0125 100.551C66.0125 99.7646 66.1751 99.0599 66.5139 98.4771C66.8392 97.8808 67.3 97.42 67.8421 97.1083C68.9398 96.4713 70.3222 96.4713 71.4064 97.1083C71.9485 97.42 72.3958 97.8808 72.7346 98.4771C73.0598 99.0734 73.236 99.7646 73.236 100.551C73.236 101.337 73.0734 102.041 72.7346 102.624C72.4093 103.221 71.9621 103.681 71.4064 103.993C70.8643 104.305 70.2544 104.467 69.631 104.467ZM69.631 96.9457C69.0483 96.9457 68.5062 97.0948 68.0047 97.3794C67.5033 97.664 67.0967 98.0841 66.7985 98.6262C66.5004 99.1683 66.3513 99.8053 66.3513 100.537C66.3513 101.269 66.5004 101.906 66.7985 102.448C67.0967 102.99 67.5033 103.41 68.0047 103.695C69.0076 104.264 70.2409 104.264 71.2302 103.695C71.7181 103.41 72.1247 102.99 72.4229 102.448C72.721 101.906 72.8701 101.269 72.8701 100.537C72.8701 99.8053 72.721 99.1683 72.4229 98.6262C72.1247 98.0841 71.7181 97.664 71.2302 97.3794C70.7423 97.0948 70.2002 96.9457 69.6175 96.9457H69.631ZM78.0743 109.157C77.3154 108.614 76.8139 107.964 76.5564 107.205L78.0472 106.568C78.2641 107.137 78.63 107.598 79.145 107.95C79.66 108.303 80.2563 108.479 80.961 108.479C81.9775 108.479 82.7771 108.194 83.3327 107.625C83.8884 107.056 84.173 106.243 84.173 105.186V104.088H84.0917C83.7664 104.589 83.3192 104.996 82.7229 105.321C82.1401 105.633 81.4625 105.796 80.7171 105.796C79.8633 105.796 79.0908 105.579 78.386 105.131C77.6813 104.684 77.1256 104.061 76.7055 103.275C76.2854 102.475 76.0821 101.567 76.0821 100.551C76.0821 99.5342 76.2854 98.6397 76.7055 97.8401C77.1256 97.0405 77.6813 96.4171 78.386 95.9699C79.0908 95.5226 79.8633 95.3058 80.7171 95.3058C81.4625 95.3058 82.1401 95.4684 82.7229 95.7801C83.3056 96.0919 83.7664 96.512 84.0917 97.027H84.173V95.6175H85.7451V105.118C85.7451 106.704 85.3114 107.923 84.4305 108.75C83.5496 109.577 82.3976 109.997 80.961 109.997C79.7955 109.997 78.8333 109.726 78.0879 109.184L78.0743 109.157ZM82.5738 103.844C83.0617 103.546 83.4412 103.112 83.7393 102.543C84.0239 101.974 84.173 101.31 84.173 100.537C84.173 99.7646 84.0239 99.0734 83.7393 98.5042C83.4547 97.935 83.0617 97.5149 82.5738 97.2167C82.0859 96.9186 81.5438 96.7695 80.961 96.7695C80.3783 96.7695 79.8226 96.9186 79.3347 97.2167C78.8468 97.5149 78.4538 97.9486 78.1556 98.5178C77.871 99.087 77.7219 99.7511 77.7219 100.524C77.7219 101.296 77.871 101.974 78.1556 102.543C78.4402 103.112 78.8333 103.546 79.3347 103.844C79.8362 104.142 80.3647 104.291 80.961 104.291C81.5573 104.291 82.0994 104.142 82.5738 103.844ZM80.961 110.146C79.7684 110.146 78.7655 109.861 77.9794 109.306C77.1934 108.75 76.6648 108.059 76.3938 107.259L76.3396 107.11L78.1421 106.338L78.2098 106.5C78.4131 107.029 78.7655 107.476 79.2398 107.801C79.7142 108.14 80.2969 108.303 80.961 108.303C81.9233 108.303 82.6822 108.032 83.2108 107.503C83.7393 106.975 84.0104 106.189 84.0104 105.186V104.494C83.6987 104.874 83.2921 105.199 82.8177 105.457C82.2079 105.782 81.5031 105.945 80.7306 105.945C79.8497 105.945 79.0366 105.714 78.3047 105.253C77.5729 104.793 76.9901 104.142 76.57 103.329C76.1498 102.516 75.933 101.567 75.933 100.524C75.933 99.48 76.1498 98.5584 76.57 97.7317C76.9901 96.905 77.5864 96.2545 78.3047 95.7937C79.0366 95.3329 79.8497 95.1025 80.7306 95.1025C81.5031 95.1025 82.2079 95.2651 82.8177 95.604C83.2921 95.8615 83.6987 96.1867 84.0104 96.5798V95.4142H85.9213V105.077C85.9213 106.704 85.4605 107.964 84.5525 108.831C83.6444 109.685 82.4383 110.132 80.961 110.132V110.146ZM76.7733 107.3C77.0308 107.964 77.5051 108.547 78.1827 109.021C78.901 109.536 79.8362 109.807 80.961 109.807C82.3434 109.807 83.4683 109.401 84.3085 108.601C85.1488 107.801 85.5689 106.622 85.5689 105.091V95.7666H84.3356V97.1761H83.9968L83.9426 97.0948C83.6309 96.6069 83.1972 96.2003 82.6416 95.9021C82.0859 95.604 81.4354 95.4413 80.7171 95.4413C79.9039 95.4413 79.145 95.6582 78.4673 96.0783C77.7897 96.4984 77.2476 97.1083 76.8546 97.8808C76.4616 98.6533 76.2583 99.5478 76.2583 100.51C76.2583 101.472 76.4616 102.394 76.8546 103.153C77.2476 103.925 77.7897 104.522 78.4673 104.955C79.145 105.375 79.8904 105.592 80.7171 105.592C81.4354 105.592 82.0859 105.443 82.6416 105.145C83.1972 104.847 83.6444 104.454 83.9426 103.966L83.9968 103.885H84.3356V105.159C84.3356 106.256 84.0375 107.124 83.4412 107.72C82.8448 108.316 82.0046 108.628 80.9475 108.628C80.2156 108.628 79.5787 108.438 79.0366 108.059C78.5487 107.72 78.1827 107.286 77.9523 106.758L76.7597 107.273L76.7733 107.3ZM80.961 104.467C80.3376 104.467 79.7684 104.305 79.2398 104.007C78.7248 103.695 78.3047 103.234 78.0065 102.638C77.7084 102.041 77.5458 101.337 77.5458 100.537C77.5458 99.7375 77.6948 99.0328 78.0065 98.45C78.3047 97.8673 78.7248 97.4065 79.2398 97.0812C79.7548 96.7695 80.3376 96.6069 80.961 96.6069C81.5844 96.6069 82.1537 96.7695 82.6687 97.0676C83.1837 97.3794 83.5902 97.8401 83.8884 98.4229C84.1866 99.0057 84.3492 99.724 84.3492 100.524C84.3492 101.323 84.2001 102.028 83.8884 102.611C83.5902 103.193 83.1701 103.654 82.6687 103.979C82.1537 104.291 81.5844 104.454 80.961 104.454V104.467ZM80.961 96.9457C80.4054 96.9457 79.8904 97.0948 79.416 97.3794C78.9552 97.664 78.5758 98.0841 78.3047 98.6127C78.0337 99.1548 77.8846 99.8053 77.8846 100.537C77.8846 101.269 78.0201 101.933 78.3047 102.475C78.5758 103.017 78.9552 103.424 79.416 103.708C79.8768 103.993 80.3918 104.129 80.961 104.129C81.5302 104.129 82.0317 103.979 82.4925 103.695C82.9533 103.41 83.3192 102.99 83.5902 102.462C83.8613 101.919 84.0104 101.269 84.0104 100.537C84.0104 99.8053 83.8748 99.1276 83.5902 98.5855C83.3192 98.057 82.9397 97.6369 82.4925 97.3658C82.0317 97.0947 81.5167 96.9457 80.961 96.9457ZM88.171 91.6059H89.8245V105.484H88.171V91.6059ZM89.9871 105.646H87.9948V91.4298H89.9871V105.646ZM88.3337 105.308H89.6483V91.7686H88.3337V105.308ZM94.1206 105.104C93.3752 104.657 92.7925 104.034 92.3723 103.234C91.9522 102.434 91.7489 101.54 91.7489 100.551C91.7489 99.5613 91.9522 98.7211 92.3452 97.9079C92.7383 97.1083 93.2939 96.4713 94.0258 95.9834C94.7441 95.5091 95.5843 95.2651 96.5466 95.2651C97.5088 95.2651 98.3491 95.482 99.0673 95.9157C99.7721 96.3494 100.328 96.9457 100.707 97.7046C101.087 98.4636 101.276 99.3445 101.276 100.32C101.276 100.51 101.263 100.686 101.222 100.822H93.4159C93.4566 101.567 93.6327 102.204 93.958 102.719C94.2833 103.234 94.6898 103.627 95.1913 103.885C95.6927 104.142 96.2077 104.278 96.7498 104.278C98.0102 104.278 98.986 103.681 99.6772 102.489L101.073 103.166C100.653 103.966 100.07 104.603 99.3384 105.064C98.6066 105.524 97.7256 105.755 96.6956 105.755C95.747 105.755 94.9067 105.524 94.1613 105.077L94.1206 105.104ZM99.5146 99.48C99.4875 99.0734 99.3655 98.6533 99.1622 98.2332C98.9589 97.8266 98.6337 97.4742 98.1864 97.1896C97.7392 96.905 97.1835 96.7695 96.5059 96.7695C95.7334 96.7695 95.0693 97.0134 94.5408 97.5149C93.9987 98.0163 93.6463 98.6669 93.4837 99.48H99.5146ZM96.6685 105.945C95.6927 105.945 94.8118 105.714 94.0393 105.24C93.2668 104.779 92.6569 104.115 92.2233 103.302C91.7896 102.489 91.5727 101.554 91.5727 100.537C91.5727 99.5207 91.776 98.6533 92.1826 97.8266C92.5892 96.9999 93.1719 96.3358 93.9173 95.8479C94.6627 95.3465 95.5437 95.1025 96.533 95.1025C97.5223 95.1025 98.4033 95.3329 99.1351 95.7801C99.8669 96.2274 100.436 96.8508 100.829 97.6369C101.222 98.4229 101.425 99.3309 101.425 100.334C101.425 100.537 101.398 100.727 101.358 100.876L101.317 100.998H93.565C93.6192 101.635 93.7954 102.191 94.0664 102.638C94.3781 103.126 94.7576 103.492 95.2319 103.736C95.7063 103.979 96.2077 104.101 96.7092 104.101C97.9154 104.101 98.8234 103.546 99.4875 102.407L99.5688 102.272L101.263 103.099L101.182 103.248C100.748 104.074 100.138 104.725 99.3926 105.213C98.6337 105.687 97.7256 105.931 96.655 105.931L96.6685 105.945ZM94.2155 104.955C94.9338 105.389 95.7605 105.606 96.6685 105.606C97.6714 105.606 98.5252 105.375 99.2164 104.928C99.8669 104.508 100.409 103.952 100.802 103.248L99.7043 102.719C98.9996 103.871 97.9831 104.454 96.7092 104.454C96.14 104.454 95.5843 104.318 95.0693 104.047C94.5408 103.776 94.1071 103.37 93.7683 102.828C93.4294 102.285 93.2397 101.621 93.1991 100.849V100.673H101.046C101.06 100.578 101.073 100.456 101.073 100.334C101.073 99.3851 100.883 98.5313 100.517 97.7859C100.152 97.0541 99.623 96.4713 98.9454 96.0647C98.2677 95.6446 97.441 95.4413 96.5194 95.4413C95.5979 95.4413 94.7847 95.6717 94.0935 96.1325C93.4023 96.5933 92.8602 97.2167 92.4808 97.9892C92.1013 98.7617 91.9115 99.6291 91.9115 100.551C91.9115 101.472 92.1148 102.394 92.5214 103.153C92.928 103.912 93.4972 104.522 94.2155 104.955ZM99.6908 99.6426H93.2804L93.321 99.4394C93.4972 98.5991 93.8631 97.9079 94.4323 97.3794C95.0015 96.8508 95.6927 96.5933 96.5194 96.5933C97.2242 96.5933 97.8205 96.7424 98.2813 97.0405C98.7556 97.3387 99.0944 97.7182 99.3248 98.1519C99.5417 98.5855 99.6637 99.0192 99.6908 99.4529V99.6291V99.6426ZM93.7141 99.3038H99.3384C99.2977 98.9786 99.1893 98.6398 99.0267 98.3145C98.8369 97.935 98.5252 97.5962 98.1051 97.3387C97.685 97.0812 97.1564 96.9457 96.5194 96.9457C95.7876 96.9457 95.1642 97.1761 94.6627 97.6504C94.202 98.0841 93.8767 98.6398 93.7005 99.3174L93.7141 99.3038ZM107.24 91.5924H111.915C112.688 91.5924 113.406 91.7686 114.07 92.1209C114.734 92.4733 115.249 92.9612 115.656 93.5846C116.049 94.208 116.252 94.9128 116.252 95.7124C116.252 96.512 116.049 97.2032 115.656 97.8401C115.263 98.4636 114.734 98.9515 114.07 99.3038C113.406 99.6562 112.688 99.8324 111.915 99.8324H108.866V105.497H107.24V91.6195V91.5924ZM111.956 98.2332C112.471 98.2332 112.932 98.1112 113.325 97.8673C113.718 97.6233 114.029 97.3116 114.246 96.9186C114.463 96.5255 114.572 96.119 114.572 95.6988C114.572 95.2787 114.463 94.8721 114.246 94.4791C114.029 94.0861 113.718 93.7744 113.325 93.5304C112.932 93.2865 112.471 93.1645 111.956 93.1645H108.879V98.2467H111.956V98.2332ZM109.042 105.633H107.077V91.4162H111.915C112.715 91.4162 113.46 91.5924 114.151 91.9583C114.829 92.3242 115.385 92.8392 115.791 93.4762C116.198 94.1267 116.415 94.8721 116.415 95.6853C116.415 96.4984 116.211 97.2438 115.791 97.8944C115.385 98.5449 114.829 99.0599 114.151 99.4123C113.474 99.7782 112.728 99.9544 111.915 99.9544H109.042V105.619V105.633ZM107.416 105.294H108.703V99.6291H111.915C112.661 99.6291 113.352 99.4665 113.989 99.1276C114.612 98.7888 115.127 98.328 115.507 97.7182C115.886 97.1219 116.076 96.4307 116.076 95.6853C116.076 94.9399 115.886 94.2487 115.507 93.6524C115.127 93.0561 114.626 92.5817 113.989 92.2429C113.352 91.9041 112.661 91.7415 111.915 91.7415H107.416V105.281V105.294ZM111.956 98.4094H108.703V92.9883H111.956C112.498 92.9883 112.986 93.1238 113.406 93.3813C113.826 93.6388 114.151 93.9777 114.382 94.3978C114.612 94.8044 114.734 95.2516 114.734 95.6988C114.734 96.1461 114.612 96.5933 114.382 96.9999C114.151 97.4065 113.826 97.7453 113.406 98.0163C112.986 98.2738 112.498 98.4094 111.956 98.4094ZM109.042 98.0705H111.956C112.444 98.0705 112.864 97.9621 113.23 97.7317C113.596 97.5013 113.894 97.2032 114.097 96.8372C114.3 96.4713 114.409 96.0919 114.409 95.6988C114.409 95.3058 114.3 94.9263 114.097 94.5604C113.894 94.1945 113.596 93.8963 113.23 93.6659C112.864 93.4355 112.43 93.3271 111.956 93.3271H109.042V98.0705ZM119.545 105.348C118.976 105.064 118.542 104.671 118.231 104.169C117.919 103.668 117.77 103.112 117.77 102.475C117.77 101.432 118.163 100.605 118.949 100.022C119.735 99.4394 120.738 99.1412 121.931 99.1412C122.527 99.1412 123.083 99.209 123.584 99.3309C124.099 99.4665 124.492 99.6155 124.763 99.7782V99.1819C124.763 98.45 124.506 97.8537 123.991 97.4065C123.476 96.9592 122.825 96.7424 122.039 96.7424C121.483 96.7424 120.968 96.8644 120.508 97.0948C120.047 97.3387 119.681 97.664 119.41 98.0976L118.163 97.1625C118.556 96.5662 119.085 96.1054 119.762 95.7666C120.44 95.4278 121.199 95.2651 122.025 95.2651C123.367 95.2651 124.424 95.6175 125.197 96.3223C125.969 97.027 126.349 97.9892 126.349 99.1954V105.457H124.777V104.047H124.695C124.411 104.522 123.991 104.928 123.421 105.267C122.852 105.606 122.215 105.768 121.497 105.768C120.779 105.768 120.128 105.633 119.559 105.348H119.545ZM123.191 103.898C123.665 103.614 124.045 103.234 124.329 102.76C124.614 102.285 124.75 101.757 124.75 101.188C124.438 100.984 124.058 100.808 123.611 100.686C123.164 100.564 122.676 100.496 122.175 100.496C121.267 100.496 120.589 100.686 120.128 101.066C119.667 101.445 119.437 101.919 119.437 102.516C119.437 103.058 119.64 103.492 120.06 103.83C120.48 104.169 120.995 104.332 121.632 104.332C122.188 104.332 122.703 104.196 123.177 103.912L123.191 103.898ZM121.483 105.945C120.738 105.945 120.06 105.796 119.464 105.497C118.868 105.199 118.407 104.793 118.082 104.264C117.756 103.749 117.594 103.139 117.594 102.475C117.594 101.377 118.014 100.51 118.841 99.8866C119.654 99.2767 120.697 98.9786 121.931 98.9786C122.54 98.9786 123.11 99.0463 123.625 99.1819C124.018 99.2767 124.329 99.3851 124.587 99.5071V99.1954C124.587 98.5042 124.357 97.9621 123.869 97.5555C123.381 97.1354 122.771 96.9321 122.025 96.9321C121.497 96.9321 121.009 97.0405 120.575 97.2709C120.142 97.4878 119.789 97.813 119.532 98.2061L119.437 98.3551L117.919 97.2167L118 97.0812C118.407 96.4578 118.963 95.9699 119.667 95.6311C120.372 95.2923 121.145 95.1161 121.998 95.1161C123.381 95.1161 124.479 95.482 125.278 96.2138C126.078 96.9457 126.484 97.9621 126.484 99.209V105.633H124.573V104.481C124.289 104.833 123.923 105.159 123.476 105.416C122.879 105.768 122.202 105.945 121.47 105.945H121.483ZM121.931 99.3174C120.765 99.3174 119.803 99.602 119.044 100.171C118.299 100.727 117.933 101.486 117.933 102.489C117.933 103.085 118.082 103.627 118.366 104.088C118.664 104.562 119.085 104.928 119.613 105.199C120.155 105.47 120.779 105.606 121.47 105.606C122.161 105.606 122.757 105.443 123.299 105.131C123.842 104.806 124.248 104.427 124.519 103.966L124.573 103.885H124.912V105.294H126.146V99.209C126.146 98.057 125.78 97.1219 125.048 96.4578C124.316 95.7801 123.286 95.4413 121.998 95.4413C121.199 95.4413 120.467 95.604 119.816 95.9292C119.22 96.2274 118.732 96.634 118.38 97.1354L119.342 97.8673C119.613 97.4878 119.979 97.1896 120.413 96.9592C120.901 96.7153 121.443 96.5798 122.025 96.5798C122.852 96.5798 123.543 96.8237 124.099 97.2845C124.655 97.7588 124.939 98.4094 124.939 99.1819V100.09L124.682 99.9272C124.424 99.7646 124.045 99.6291 123.557 99.5071C123.056 99.3851 122.513 99.3174 121.944 99.3174H121.931ZM121.646 104.494C120.982 104.494 120.413 104.318 119.965 103.952C119.518 103.586 119.288 103.099 119.288 102.502C119.288 101.852 119.545 101.323 120.033 100.917C120.521 100.524 121.239 100.32 122.188 100.32C122.703 100.32 123.205 100.388 123.665 100.524C124.14 100.659 124.533 100.835 124.858 101.052L124.939 101.106V101.201C124.939 101.798 124.79 102.353 124.492 102.855C124.194 103.356 123.787 103.763 123.286 104.061C122.784 104.359 122.229 104.508 121.646 104.508V104.494ZM122.188 100.659C121.321 100.659 120.67 100.835 120.25 101.188C119.83 101.526 119.627 101.96 119.627 102.516C119.627 103.004 119.803 103.397 120.182 103.708C120.562 104.02 121.05 104.169 121.646 104.169C122.175 104.169 122.662 104.034 123.11 103.763C123.557 103.492 123.923 103.126 124.194 102.678C124.451 102.258 124.587 101.784 124.601 101.283C124.316 101.106 123.977 100.957 123.584 100.849C123.15 100.727 122.676 100.659 122.202 100.659H122.188ZM128.355 95.7395H129.927V97.3116H130.008C130.238 96.7288 130.631 96.2816 131.187 95.9563C131.743 95.6311 132.353 95.4684 133.003 95.4684C133.288 95.4684 133.532 95.482 133.721 95.5226V97.2032C133.505 97.149 133.206 97.1219 132.827 97.1219C131.987 97.1219 131.309 97.4065 130.78 97.9486C130.252 98.5042 129.994 99.2225 129.994 100.117V105.606H128.341V95.7259L128.355 95.7395ZM138.384 105.579C138.045 105.443 137.76 105.267 137.516 105.05C137.259 104.806 137.069 104.508 136.933 104.183C136.798 103.858 136.744 103.451 136.744 102.977V97.0812H135.022V95.5904H136.744V92.7986H138.384V95.5904H140.782V97.0812H138.384V102.584C138.384 103.139 138.492 103.546 138.695 103.817C138.939 104.101 139.292 104.251 139.766 104.251C140.145 104.251 140.498 104.142 140.85 103.925V105.538C140.66 105.633 140.457 105.687 140.254 105.728C140.051 105.768 139.793 105.782 139.495 105.782C139.088 105.782 138.722 105.714 138.384 105.579ZM139.495 105.945C139.075 105.945 138.682 105.877 138.316 105.741C137.95 105.606 137.638 105.416 137.394 105.172C137.123 104.901 136.906 104.589 136.771 104.251C136.635 103.912 136.567 103.478 136.567 102.99V97.2574H134.846V95.4278H136.567V92.6359H138.546V95.4278H140.945V97.2574H138.546V102.597C138.546 103.112 138.641 103.492 138.817 103.722C139.034 103.966 139.332 104.088 139.752 104.088C140.091 104.088 140.43 103.979 140.742 103.79L140.999 103.627V105.646L140.904 105.687C140.687 105.782 140.484 105.85 140.267 105.89C140.064 105.931 139.793 105.945 139.468 105.945H139.495ZM135.185 96.905H136.906V102.977C136.906 103.424 136.961 103.817 137.082 104.115C137.204 104.413 137.381 104.698 137.625 104.928C137.841 105.131 138.112 105.308 138.424 105.43C138.749 105.552 139.102 105.619 139.481 105.619C139.779 105.619 140.023 105.606 140.213 105.565C140.362 105.538 140.511 105.497 140.674 105.43V104.223C140.376 104.359 140.064 104.44 139.752 104.44C139.237 104.44 138.831 104.278 138.56 103.939C138.329 103.641 138.207 103.207 138.207 102.597V96.9186H140.606V95.7666H138.207V92.9748H136.906V95.7666H135.185V96.9186V96.905ZM130.171 105.796H128.178V95.5769H130.089V96.7695C130.333 96.3765 130.672 96.0647 131.092 95.8208C131.675 95.482 132.312 95.3058 133.003 95.3058C133.288 95.3058 133.545 95.3329 133.749 95.36L133.884 95.3871V97.42L133.681 97.3658C133.477 97.3116 133.193 97.298 132.827 97.298C132.027 97.298 131.404 97.5555 130.902 98.0841C130.415 98.5991 130.171 99.2903 130.171 100.144V105.796ZM128.517 105.457H129.832V100.144C129.832 99.209 130.116 98.45 130.659 97.8537C131.214 97.2709 131.946 96.9728 132.827 96.9728C133.112 96.9728 133.355 96.9863 133.545 97.0134V95.6717C133.383 95.6446 133.206 95.6446 133.003 95.6446C132.38 95.6446 131.797 95.8072 131.268 96.1054C130.74 96.4171 130.374 96.8237 130.157 97.3794L130.116 97.4878H129.751V95.9157H128.517V105.457ZM142.666 95.5904H144.238V97.0405H144.32C144.591 96.5526 145.024 96.1325 145.621 95.7937C146.217 95.4549 146.854 95.2787 147.518 95.2787C148.711 95.2787 149.619 95.6175 150.242 96.3087C150.866 96.9999 151.177 97.935 151.177 99.1276V105.47H149.524V99.3852C149.524 98.4636 149.307 97.7995 148.86 97.3929C148.426 96.9863 147.816 96.7695 147.057 96.7695C146.529 96.7695 146.054 96.9186 145.634 97.2167C145.214 97.5149 144.889 97.9079 144.658 98.3958C144.428 98.8837 144.306 99.3851 144.306 99.9137V105.47H142.653V95.5904H142.666ZM151.34 105.646H149.348V99.3852C149.348 98.5178 149.144 97.8944 148.738 97.5149C148.331 97.1354 147.762 96.9457 147.057 96.9457C146.569 96.9457 146.122 97.0812 145.729 97.3658C145.336 97.6504 145.024 98.0163 144.807 98.4771C144.591 98.9379 144.469 99.4258 144.469 99.9272V105.66H142.476V95.4413H144.387V96.6204C144.672 96.2545 145.038 95.9428 145.512 95.6717C146.136 95.3194 146.8 95.1296 147.491 95.1296C148.724 95.1296 149.686 95.4955 150.337 96.2274C150.987 96.9457 151.326 97.935 151.326 99.1683V105.674L151.34 105.646ZM149.686 105.308H151.001V99.1412C151.001 98.0028 150.703 97.0948 150.107 96.4307C149.524 95.7802 148.643 95.4549 147.504 95.4549C146.867 95.4549 146.258 95.6175 145.688 95.9428C145.119 96.268 144.713 96.6611 144.455 97.1219L144.401 97.2032H144.049V95.753H142.815V105.294H144.13V99.9001C144.13 99.3445 144.252 98.8159 144.496 98.3009C144.74 97.7995 145.079 97.3794 145.526 97.0676C145.973 96.7559 146.488 96.5933 147.044 96.5933C147.843 96.5933 148.494 96.8237 148.968 97.2574C149.442 97.7046 149.686 98.4094 149.686 99.3716V105.294V105.308ZM155.392 105.104C154.647 104.657 154.064 104.034 153.644 103.234C153.224 102.434 153.02 101.54 153.02 100.551C153.02 99.5613 153.224 98.7211 153.617 97.9079C154.01 97.1083 154.565 96.4713 155.297 95.9834C156.029 95.4955 156.856 95.2651 157.818 95.2651C158.78 95.2651 159.621 95.482 160.339 95.9157C161.057 96.3494 161.599 96.9457 161.979 97.7046C162.358 98.4636 162.548 99.3445 162.548 100.32C162.548 100.51 162.534 100.686 162.494 100.822H154.687C154.728 101.567 154.904 102.204 155.229 102.719C155.555 103.234 155.961 103.627 156.463 103.885C156.964 104.142 157.479 104.278 158.021 104.278C159.282 104.278 160.257 103.681 160.949 102.489L162.345 103.166C161.911 103.966 161.342 104.603 160.61 105.064C159.878 105.524 158.997 105.755 157.967 105.755C157.018 105.755 156.178 105.524 155.433 105.077L155.392 105.104ZM160.786 99.48C160.759 99.0734 160.637 98.6533 160.434 98.2332C160.23 97.8266 159.905 97.4742 159.458 97.1896C159.011 96.905 158.455 96.7695 157.777 96.7695C157.005 96.7695 156.341 97.0134 155.812 97.5149C155.27 98.0163 154.918 98.6669 154.755 99.48H160.786ZM157.94 105.945C156.978 105.945 156.083 105.714 155.311 105.24C154.538 104.779 153.928 104.115 153.495 103.302C153.061 102.489 152.844 101.554 152.844 100.537C152.844 99.5207 153.047 98.6533 153.454 97.8266C153.861 96.9999 154.443 96.3358 155.189 95.8479C155.934 95.3465 156.815 95.1025 157.804 95.1025C158.794 95.1025 159.675 95.3329 160.407 95.7801C161.138 96.2274 161.708 96.8508 162.101 97.6369C162.494 98.4229 162.697 99.3309 162.697 100.334C162.697 100.537 162.67 100.727 162.629 100.876L162.589 100.998H154.836C154.891 101.635 155.067 102.191 155.338 102.638C155.636 103.126 156.029 103.492 156.503 103.736C156.978 103.979 157.466 104.101 157.981 104.101C159.187 104.101 160.108 103.546 160.759 102.407L160.84 102.272L162.534 103.099L162.453 103.248C162.019 104.074 161.409 104.725 160.664 105.213C159.905 105.687 158.984 105.931 157.926 105.931L157.94 105.945ZM155.487 104.955C156.205 105.389 157.032 105.606 157.94 105.606C158.943 105.606 159.797 105.375 160.488 104.928C161.138 104.508 161.681 103.952 162.074 103.248L160.976 102.719C160.271 103.871 159.255 104.454 157.981 104.454C157.411 104.454 156.856 104.318 156.341 104.047C155.812 103.776 155.379 103.37 155.04 102.828C154.701 102.285 154.511 101.621 154.471 100.849V100.673H162.317C162.331 100.578 162.345 100.456 162.345 100.334C162.345 99.3851 162.155 98.5313 161.789 97.7859C161.423 97.0541 160.894 96.4849 160.217 96.0647C159.539 95.6446 158.712 95.4413 157.791 95.4413C156.869 95.4413 156.056 95.6717 155.365 96.1325C154.674 96.5933 154.118 97.2167 153.752 97.9892C153.373 98.7617 153.183 99.6291 153.183 100.551C153.183 101.472 153.386 102.394 153.793 103.153C154.199 103.912 154.769 104.522 155.487 104.955ZM160.962 99.6426H154.552L154.592 99.4394C154.769 98.5991 155.135 97.9079 155.704 97.3794C156.273 96.8508 156.964 96.5933 157.791 96.5933C158.496 96.5933 159.092 96.7424 159.553 97.0405C160.027 97.3387 160.366 97.7182 160.596 98.1519C160.813 98.5855 160.935 99.0192 160.962 99.4529V99.6291V99.6426ZM154.972 99.3038H160.596C160.556 98.9786 160.447 98.6398 160.285 98.3145C160.095 97.935 159.783 97.5962 159.363 97.3387C158.943 97.0676 158.414 96.9457 157.777 96.9457C157.046 96.9457 156.422 97.1761 155.921 97.6504C155.46 98.0841 155.135 98.6398 154.958 99.3174L154.972 99.3038ZM164.432 95.5769H166.004V97.1625H166.085C166.275 96.6204 166.654 96.1732 167.21 95.8072C167.766 95.4413 168.348 95.2651 168.958 95.2651C169.406 95.2651 169.799 95.3329 170.124 95.482V97.2438C169.704 97.0405 169.243 96.9321 168.728 96.9321C168.254 96.9321 167.806 97.0676 167.413 97.3387C167.007 97.6098 166.695 97.9757 166.451 98.4365C166.207 98.8972 166.099 99.3851 166.099 99.9272V105.457H164.445V95.5769H164.432ZM166.248 105.633H164.256V95.4142H166.166V96.6069C166.397 96.2545 166.709 95.9428 167.102 95.6853C167.684 95.3058 168.308 95.1161 168.945 95.1161C169.419 95.1161 169.826 95.1974 170.178 95.3465L170.286 95.3871V97.542L170.042 97.42C169.649 97.2303 169.202 97.1219 168.728 97.1219C168.281 97.1219 167.874 97.2438 167.508 97.5013C167.129 97.7588 166.831 98.1112 166.6 98.5313C166.37 98.965 166.261 99.4394 166.261 99.9408V105.646L166.248 105.633ZM164.594 105.294H165.909V99.9272C165.909 99.3716 166.031 98.843 166.288 98.3687C166.532 97.8808 166.885 97.5013 167.305 97.2032C167.739 96.9186 168.213 96.7695 168.714 96.7695C169.162 96.7695 169.568 96.8373 169.948 96.9863V95.5904C169.663 95.482 169.338 95.4278 168.958 95.4278C168.389 95.4278 167.833 95.604 167.305 95.9428C166.79 96.2816 166.424 96.7153 166.248 97.2167L166.207 97.3251H165.841V95.7395H164.608V105.281L164.594 105.294Z" fill="#606469"/>
<path id="Vector_2" d="M131.975 46.4351C131.975 44.3615 131.65 42.3693 131.311 40.4448H104.043V51.7477H119.344C118.666 55.4069 116.932 58.5105 113.828 60.5976V67.9702H123.301C128.817 62.8744 131.988 55.3392 131.988 46.4351H131.975Z" fill="#0081C6"/>
<path id="Vector_3" d="M103.946 75.0312C111.82 75.0312 118.448 72.4426 123.286 67.9703L113.813 60.5976C111.211 62.3595 107.863 63.3895 103.946 63.3895C96.3569 63.3895 89.9058 58.253 87.6019 51.3276H77.8711V58.9036C82.6687 68.4717 92.535 75.0312 103.946 75.0312Z" fill="#00AE57"/>
<path id="Vector_4" d="M87.6156 51.3412C87.0328 49.5793 86.7076 47.7091 86.7076 45.771C86.7076 43.833 87.0328 41.9628 87.6156 40.2009V32.625H77.8848C75.9061 36.5824 74.7812 41.0412 74.7812 45.771C74.7812 50.5009 75.9061 54.9597 77.8848 58.9171L87.6156 51.3412Z" fill="#FBAB18"/>
<path id="Vector_5" d="M103.946 28.1388C108.229 28.1388 112.078 29.616 115.114 32.5163L123.476 24.1272C118.421 19.3973 111.82 16.4971 103.946 16.4971C92.5486 16.4971 82.6687 23.0565 77.8711 32.6247L87.6019 40.2006C89.9058 33.2752 96.3433 28.1388 103.946 28.1388Z" fill="#F04931"/>
</g>
</svg>
